name C:\Users\Nicos\Desktop\Gil_twoSteps\Study2\ExperimentalData\IK_Splined\twoSteps_IK_BSplines_150_meshInts_study2_p02_s_01_lowIK_modROI.mot
datacolumns 38
datarows 6
range 0.43742132 0.44136000
endheader
                time	         pelvis_tilt	         pelvis_list	     pelvis_rotation	           pelvis_tx	           pelvis_ty	           pelvis_tz	       hip_flexion_r	     hip_adduction_r	      hip_rotation_r	        knee_angle_r	       ankle_angle_r	    subtalar_angle_r	         mtp_angle_r	       hip_flexion_l	     hip_adduction_l	      hip_rotation_l	        knee_angle_l	       ankle_angle_l	    subtalar_angle_l	         mtp_angle_l	    lumbar_extension	      lumbar_bending	     lumbar_rotation	          arm_flex_r	           arm_add_r	           arm_rot_r	        elbow_flex_r	           pro_sup_r	        wrist_flex_r	         wrist_dev_r	          arm_flex_l	           arm_add_l	           arm_rot_l	        elbow_flex_l	           pro_sup_l	        wrist_flex_l	         wrist_dev_l	
          0.43742132	        -21.46296569	          1.47299497	        -11.41774291	         -0.86039171	          0.85360719	          0.34112784	         25.32200494	          1.52431411	         10.81671230	        -56.77221555	         18.75948282	        -15.97637082	         12.64640827	         53.67456652	         -3.59930168	        -14.74683914	       -110.67540960	         -5.86135701	        -14.43522432	         10.19315976	        -25.60243546	         -3.55078501	         -6.78122022	         33.11385497	          1.39722684	          9.90766682	         81.71890009	         71.95296799	         -5.51037203	         10.71468535	        -44.05697424	         -9.77519596	        -17.05548232	         37.31283062	         71.32887451	        -10.35336828	         19.48741848	
          0.43845333	        -21.42256959	          1.63284266	        -11.54696902	         -0.85582912	          0.85346524	          0.34138369	         24.89536036	          1.27462106	         10.89341845	        -56.48159261	         18.64253558	        -15.85921396	         12.89479346	         54.39199876	         -3.50525984	        -14.67598129	       -110.94536112	         -5.62121567	        -14.48124380	         10.15078331	        -25.52461839	         -3.85075198	         -6.77932695	         34.00183646	          1.68600033	         10.07793418	         82.09763632	         71.93235114	         -5.53920930	         10.72335633	        -44.91163234	         -9.66471566	        -17.15576368	         37.55154555	         71.77606960	        -10.24770567	         19.62892995	
          0.43845333	        -21.42256959	          1.63284266	        -11.54696902	         -0.85582912	          0.85346524	          0.34138369	         24.89536036	          1.27462106	         10.89341845	        -56.48159261	         18.64253558	        -15.85921396	         12.89479346	         54.39199876	         -3.50525984	        -14.67598129	       -110.94536112	         -5.62121567	        -14.48124380	         10.15078331	        -25.52461839	         -3.85075198	         -6.77932695	         34.00183646	          1.68600033	         10.07793418	         82.09763632	         71.93235114	         -5.53920930	         10.72335633	        -44.91163234	         -9.66471566	        -17.15576368	         37.55154555	         71.77606960	        -10.24770567	         19.62892995	
          0.43890401	        -21.40492859	          1.70264825	        -11.60340215	         -0.85383663	          0.85340325	          0.34149542	         24.70904438	          1.16557993	         10.92691607	        -56.35467738	         18.59146465	        -15.80805148	         13.00326344	         54.70530191	         -3.46419171	        -14.64503761	       -111.06324913	         -5.51634578	        -14.50134054	         10.13227748	        -25.49063562	         -3.98174777	         -6.77850016	         34.38961859	          1.81210791	         10.15229006	         82.26303069	         71.92334775	         -5.55180256	         10.72714295	        -45.28486212	         -9.61646883	        -17.19955662	         37.65579252	         71.97136000	        -10.20156273	         19.69072810	
          0.44032799	        -21.35481899	          1.92841851	        -11.76991614	         -0.84751502	          0.85319008	          0.34183047	         24.12011695	          0.80558228	         11.02304143	        -55.93837753	         18.42886236	        -15.63337843	         13.35360089	         55.70109216	         -3.32515319	        -14.54252642	       -111.41530619	         -5.19683592	        -14.57996290	         10.05866552	        -25.37123171	         -4.39655066	         -6.76688295	         35.59548047	          2.18597207	         10.38486675	         82.80769465	         71.89387963	         -5.59322374	         10.73821380	        -46.46448339	         -9.46570817	        -17.33939335	         38.01068789	         72.58309792	        -10.05164977	         19.87984307	
          0.44136000	        -21.32402904	          2.09716290	        -11.87901840	         -0.84290777	          0.85301861	          0.34205564	         23.69305427	          0.52948413	         11.08317044	        -55.62164423	         18.30980068	        -15.49400061	         13.61498467	         56.42855962	         -3.21527401	        -14.46357610	       -111.65040704	         -4.97689437	        -14.65179469	          9.99044904	        -25.27288026	         -4.69807010	         -6.74962181	         36.45040254	          2.43278958	         10.55111072	         83.22412190	         71.87152022	         -5.62484556	         10.74536020	        -47.31976873	         -9.35809431	        -17.44218159	         38.29295135	         73.02124789	         -9.93895569	         20.01087256	
